<?xml version="1.0" encoding="UTF-8" standalone="no"?>
<svg
   xmlns:dc="http://purl.org/dc/elements/1.1/"
   xmlns:cc="http://creativecommons.org/ns#"
   xmlns:rdf="http://www.w3.org/1999/02/22-rdf-syntax-ns#"
   xmlns:svg="http://www.w3.org/2000/svg"
   xmlns="http://www.w3.org/2000/svg"
   xmlns:sodipodi="http://sodipodi.sourceforge.net/DTD/sodipodi-0.dtd"
   xmlns:inkscape="http://www.inkscape.org/namespaces/inkscape"
   version="1.1"
   id="svg2"
   xml:space="preserve"
   width="1066.6667"
   height="1066.6667"
   viewBox="0 0 1066.6667 1066.6667"
   sodipodi:docname="dog_and_cat_pattern-11.eps"><metadata
     id="metadata8"><rdf:RDF><cc:Work
         rdf:about=""><dc:format>image/svg+xml</dc:format><dc:type
           rdf:resource="http://purl.org/dc/dcmitype/StillImage" /></cc:Work></rdf:RDF></metadata><defs
     id="defs6" /><sodipodi:namedview
     pagecolor="#ffffff"
     bordercolor="#666666"
     borderopacity="1"
     objecttolerance="10"
     gridtolerance="10"
     guidetolerance="10"
     inkscape:pageopacity="0"
     inkscape:pageshadow="2"
     inkscape:window-width="640"
     inkscape:window-height="480"
     id="namedview4" /><g
     id="g10"
     inkscape:groupmode="layer"
     inkscape:label="ink_ext_XXXXXX"
     transform="matrix(1.3333333,0,0,-1.3333333,0,1066.6667)"><g
       id="g12"
       transform="scale(0.1)"><path
         d="M 8000,0 H 0 V 8000 H 8000 V 0"
         style="fill:#ffffff;fill-opacity:1;fill-rule:nonzero;stroke:none"
         id="path14" /><path
         d="m 1973.44,3059.38 -167.54,44.9 -32.2,55.78 c -44,76.21 -142.36,102.56 -218.57,58.56 -76.21,-44 -102.56,-142.35 -58.56,-218.56 l 26.86,-46.53 -48.8,-182.14 c -22.78,-85 28.13,-173.18 113.14,-195.95 v -0.01 c 85,-22.77 173.18,28.14 195.96,113.14 l 19.76,73.76 c 3.92,1.86 7.83,3.75 11.64,5.96 0.85,0.49 1.6,1.07 2.44,1.57 l 73.05,-19.57 c 85,-22.78 173.18,28.14 195.96,113.14 v 0 c 22.78,85 -28.14,173.18 -113.14,195.95"
         style="fill:#e7c9a5;fill-opacity:1;fill-rule:nonzero;stroke:none"
         id="path16" /><path
         d="m 1160,3118.42 c 77.32,0 140,-35.81 140,-80 0,-44.18 -62.68,-80 -140,-80 -77.32,0 -140,35.82 -140,80 0,44.19 62.68,80 140,80"
         style="fill:#e7c9a5;fill-opacity:1;fill-rule:nonzero;stroke:none"
         id="path18" /><path
         d="m 1839.47,3510.72 c -38.66,-66.96 -38.98,-139.16 -0.72,-161.24 38.27,-22.1 100.63,14.28 139.29,81.24 38.66,66.96 38.98,139.15 0.71,161.24 -38.26,22.09 -100.62,-14.28 -139.28,-81.24"
         style="fill:#e7c9a5;fill-opacity:1;fill-rule:nonzero;stroke:none"
         id="path20" /><path
         d="m 1337.44,3465.62 c 71,-84.61 87.4,-187.74 36.63,-230.34 -50.77,-42.6 -149.49,-8.54 -220.48,76.07 -71.01,84.62 -87.41,187.75 -36.64,230.35 50.77,42.6 149.49,8.54 220.49,-76.08"
         style="fill:#e7c9a5;fill-opacity:1;fill-rule:nonzero;stroke:none"
         id="path22" /><path
         d="m 1450.07,3530.65 c 37.78,-103.79 118.89,-169.56 181.17,-146.89 62.27,22.67 82.14,125.18 44.36,228.98 -37.78,103.8 -118.89,169.56 -181.17,146.9 -62.28,-22.67 -82.14,-125.19 -44.36,-228.99"
         style="fill:#e7c9a5;fill-opacity:1;fill-rule:nonzero;stroke:none"
         id="path24" /><path
         d="m 1860,6850 v -630 c 99.41,0 180,-80.59 180,-180 0,-99.41 -80.59,-180 -180,-180 -62.64,0 -117.76,32.03 -150,80.58 -32.24,-48.55 -87.36,-80.58 -150,-80.58 -99.41,0 -180,80.59 -180,180 0,99.41 80.59,180 180,180 v 630 c -99.41,0 -180,80.59 -180,180 0,99.41 80.59,180 180,180 62.64,0 117.76,-32.04 150,-80.58 32.24,48.54 87.36,80.58 150,80.58 99.41,0 180,-80.59 180,-180 0,-99.41 -80.59,-180 -180,-180"
         style="fill:#e7c9a5;fill-opacity:1;fill-rule:nonzero;stroke:none"
         id="path26" /><path
         d="m 5440,3500 v -630 c 99.41,0 180,-80.59 180,-180 0,-99.41 -80.59,-180 -180,-180 -62.64,0 -117.76,32.03 -150,80.58 -32.24,-48.55 -87.36,-80.58 -150,-80.58 -99.41,0 -180,80.59 -180,180 0,99.41 80.59,180 180,180 v 630 c -99.41,0 -180,80.59 -180,180 0,99.41 80.59,180 180,180 62.64,0 117.76,-32.03 150,-80.58 32.24,48.55 87.36,80.58 150,80.58 99.41,0 180,-80.59 180,-180 0,-99.41 -80.59,-180 -180,-180"
         style="fill:#e7c9a5;fill-opacity:1;fill-rule:nonzero;stroke:none"
         id="path28" /><path
         d="M 4682.94,4547.35 4805.59,4670 H 4870 c 88,0 160,72 160,160 0,88 -72,160 -160,160 h -53.73 l -133.33,133.33 c -62.22,62.23 -164.05,62.23 -226.27,0 v 0 c -62.23,-62.22 -62.23,-164.05 0,-226.27 l 53.99,-54 c -0.35,-4.32 -0.66,-8.65 -0.66,-13.06 0,-0.98 0.13,-1.92 0.15,-2.9 l -53.48,-53.47 c -62.23,-62.23 -62.23,-164.05 0,-226.28 v 0 c 62.22,-62.22 164.05,-62.22 226.27,0"
         style="fill:#e7c9a5;fill-opacity:1;fill-rule:nonzero;stroke:none"
         id="path30" /><path
         d="m 5140.79,5222.29 c -38.66,-66.96 -101.01,-103.33 -139.28,-81.24 -38.26,22.09 -37.94,94.28 0.72,161.24 38.66,66.97 101.02,103.34 139.28,81.25 38.27,-22.09 37.94,-94.28 -0.72,-161.25"
         style="fill:#e7c9a5;fill-opacity:1;fill-rule:nonzero;stroke:none"
         id="path32" /><path
         d="m 5140.79,4437.71 c -38.66,66.96 -101.01,103.33 -139.28,81.24 -38.26,-22.09 -37.94,-94.28 0.72,-161.24 38.66,-66.97 101.02,-103.34 139.28,-81.25 38.27,22.09 37.94,94.28 -0.72,161.25"
         style="fill:#e7c9a5;fill-opacity:1;fill-rule:nonzero;stroke:none"
         id="path34" /><path
         d="m 5352.76,4895.03 c -108.78,-19.18 -206.29,18.18 -217.8,83.45 -11.51,65.26 67.35,133.72 176.13,152.9 108.77,19.18 206.29,-18.18 217.79,-83.44 11.51,-65.27 -67.34,-133.73 -176.12,-152.91"
         style="fill:#e7c9a5;fill-opacity:1;fill-rule:nonzero;stroke:none"
         id="path36" /><path
         d="m 5352.76,4764.97 c -108.78,19.18 -206.29,-18.18 -217.8,-83.45 -11.51,-65.26 67.35,-133.72 176.13,-152.9 108.77,-19.18 206.29,18.18 217.79,83.44 11.51,65.27 -67.34,133.73 -176.12,152.91"
         style="fill:#e7c9a5;fill-opacity:1;fill-rule:nonzero;stroke:none"
         id="path38" /><path
         d="m 5373.67,1090 v 173.45 l 45.54,45.54 c 62.23,62.23 62.23,164.05 0,226.28 -62.22,62.23 -164.04,62.23 -226.27,0 l -37.99,-37.99 h -188.56 c -88,0 -160,-72 -160,-160 v 0 c 0,-88 72,-160 160,-160 h 76.36 c 2.81,-3.31 5.65,-6.59 8.77,-9.71 0.69,-0.69 1.45,-1.26 2.15,-1.94 V 1090 c 0,-88 72,-160 160,-160 v 0 c 88,0 160,72 160,160"
         style="fill:#c17529;fill-opacity:1;fill-rule:nonzero;stroke:none"
         id="path40" /><path
         d="m 5220.16,1891.01 c 20.02,-74.69 1.64,-144.5 -41.04,-155.94 -42.67,-11.43 -93.49,39.84 -113.5,114.52 -20.02,74.69 -1.64,144.5 41.04,155.94 42.67,11.44 93.49,-39.84 113.5,-114.52"
         style="fill:#c17529;fill-opacity:1;fill-rule:nonzero;stroke:none"
         id="path42" /><path
         d="m 5774.95,1336.22 c -74.68,20.01 -144.5,1.64 -155.93,-41.04 -11.44,-42.68 39.83,-93.5 114.52,-113.51 74.69,-20.01 144.5,-1.64 155.94,41.04 11.43,42.68 -39.84,93.5 -114.53,113.51"
         style="fill:#c17529;fill-opacity:1;fill-rule:nonzero;stroke:none"
         id="path44" /><path
         d="m 5601.46,1809.48 c -63.36,-90.48 -158.73,-133.02 -213.02,-95 -54.28,38.01 -46.93,142.18 16.42,232.66 63.36,90.48 158.73,133.01 213.01,95 54.29,-38.01 46.94,-142.18 -16.41,-232.66"
         style="fill:#c17529;fill-opacity:1;fill-rule:nonzero;stroke:none"
         id="path46" /><path
         d="m 5693.42,1717.51 c -90.48,-63.35 -133.01,-158.72 -95,-213.01 38.02,-54.29 142.18,-46.94 232.66,16.42 90.48,63.35 133.02,158.72 95,213.01 -38.01,54.29 -142.18,46.94 -232.66,-16.42"
         style="fill:#c17529;fill-opacity:1;fill-rule:nonzero;stroke:none"
         id="path48" /><path
         d="m 600,1113.67 h 173.453 l 45.543,45.54 c 62.227,62.23 164.047,62.23 226.274,0 62.23,-62.22 62.23,-164.038 0,-226.269 l -37.99,-37.992 V 706.391 c 0,-88 -71.999,-160 -159.999,-160 h -0.004 c -87.996,0 -159.996,72 -160,160 v 76.359 c -3.3,2.813 -6.586,5.652 -9.703,8.77 -0.691,0.691 -1.265,1.449 -1.941,2.152 H 600 c -88,0 -160,72 -160,160 v 0 c 0,87.998 72,159.998 160,159.998"
         style="fill:#c17529;fill-opacity:1;fill-rule:nonzero;stroke:none"
         id="path50" /><path
         d="m 1401.01,960.16 c -74.69,20.02 -144.5,1.641 -155.94,-41.039 -11.43,-42.672 39.84,-93.492 114.52,-113.5 74.69,-20.019 144.5,-1.641 155.94,41.039 11.44,42.672 -39.84,93.492 -114.52,113.5"
         style="fill:#c17529;fill-opacity:1;fill-rule:nonzero;stroke:none"
         id="path52" /><path
         d="m 846.219,1514.95 c 20.011,-74.68 1.636,-144.5 -41.039,-155.93 -42.68,-11.44 -93.496,39.83 -113.508,114.52 -20.012,74.69 -1.641,144.5 41.039,155.94 42.676,11.43 93.496,-39.84 113.508,-114.53"
         style="fill:#c17529;fill-opacity:1;fill-rule:nonzero;stroke:none"
         id="path54" /><path
         d="m 1319.48,1341.46 c -90.48,-63.36 -133.02,-158.73 -95,-213.02 38.01,-54.28 142.18,-46.93 232.66,16.42 90.48,63.36 133.01,158.73 95,213.01 -38.02,54.29 -142.18,46.94 -232.66,-16.41"
         style="fill:#c17529;fill-opacity:1;fill-rule:nonzero;stroke:none"
         id="path56" /><path
         d="m 1227.51,1433.42 c -63.35,-90.48 -158.72,-133.01 -213.01,-95 -54.289,38.02 -46.937,142.18 16.42,232.66 63.35,90.48 158.72,133.02 213.01,95 54.29,-38.01 46.94,-142.18 -16.42,-232.66"
         style="fill:#c17529;fill-opacity:1;fill-rule:nonzero;stroke:none"
         id="path58" /><path
         d="m 6472.92,6613.81 215.47,-592.01 c 93.41,34 196.71,-14.17 230.71,-107.58 34,-93.42 -14.17,-196.71 -107.59,-230.71 -58.86,-21.43 -121.61,-10.17 -168.51,24.42 -13.69,-56.65 -54.53,-105.6 -113.39,-127.03 -93.42,-34 -196.71,14.17 -230.71,107.59 -34,93.41 14.16,196.7 107.58,230.7 l -215.47,592.01 c -93.42,-34 -196.71,14.17 -230.71,107.58 -34,93.42 14.17,196.71 107.58,230.71 58.87,21.43 121.62,10.17 168.52,-24.42 13.69,56.65 54.52,105.6 113.39,127.03 93.42,34 196.71,-14.17 230.71,-107.59 34,-93.41 -14.17,-196.7 -107.58,-230.7"
         style="fill:#8b643b;fill-opacity:1;fill-rule:nonzero;stroke:none"
         id="path60" /><path
         d="M 2396.48,1883.81 2181.01,1291.8 c -93.42,34 -196.71,-14.17 -230.71,-107.58 -34,-93.42 14.17,-196.708 107.58,-230.708 58.87,-21.43 121.62,-10.18 168.52,24.418 13.69,-56.649 54.52,-105.602 113.39,-127.028 93.42,-34.004 196.71,14.168 230.71,107.59 34,93.408 -14.17,196.698 -107.58,230.698 l 215.47,592.01 c 93.41,-34 196.71,14.17 230.71,107.58 34,93.42 -14.17,196.71 -107.59,230.71 -58.86,21.43 -121.61,10.17 -168.51,-24.42 -13.69,56.65 -54.53,105.6 -113.39,127.02 -93.42,34.01 -196.71,-14.16 -230.71,-107.58 -34,-93.41 14.16,-196.7 107.58,-230.7"
         style="fill:#8b643b;fill-opacity:1;fill-rule:nonzero;stroke:none"
         id="path62" /><path
         d="m 5313.44,6309.38 -167.54,44.9 -32.2,55.78 c -44,76.21 -142.36,102.56 -218.57,58.56 -76.21,-44 -102.56,-142.35 -58.56,-218.56 l 26.86,-46.53 -48.8,-182.13 c -22.78,-85.01 28.13,-173.19 113.14,-195.96 v 0 c 85,-22.78 173.18,28.13 195.96,113.13 l 19.76,73.76 c 3.92,1.86 7.83,3.75 11.64,5.96 0.85,0.49 1.6,1.07 2.44,1.57 l 73.05,-19.57 c 85,-22.78 173.18,28.14 195.96,113.14 v 0 c 22.78,85 -28.14,173.18 -113.14,195.95"
         style="fill:#d9a05d;fill-opacity:1;fill-rule:nonzero;stroke:none"
         id="path64" /><path
         d="m 4500,6368.42 c 77.32,0 140,-35.81 140,-80 0,-44.18 -62.68,-80 -140,-80 -77.32,0 -140,35.82 -140,80 0,44.19 62.68,80 140,80"
         style="fill:#d9a05d;fill-opacity:1;fill-rule:nonzero;stroke:none"
         id="path66" /><path
         d="m 5179.47,6760.72 c -38.66,-66.96 -38.98,-139.16 -0.72,-161.25 38.27,-22.09 100.63,14.29 139.29,81.25 38.66,66.96 38.98,139.15 0.71,161.24 -38.26,22.09 -100.62,-14.28 -139.28,-81.24"
         style="fill:#d9a05d;fill-opacity:1;fill-rule:nonzero;stroke:none"
         id="path68" /><path
         d="m 4677.44,6715.62 c 71,-84.61 87.4,-187.74 36.63,-230.34 -50.77,-42.6 -149.49,-8.54 -220.49,76.08 -70.99,84.61 -87.4,187.74 -36.63,230.34 50.77,42.6 149.49,8.54 220.49,-76.08"
         style="fill:#d9a05d;fill-opacity:1;fill-rule:nonzero;stroke:none"
         id="path70" /><path
         d="m 4790.07,6780.65 c 37.78,-103.79 118.89,-169.56 181.17,-146.89 62.28,22.67 82.13,125.18 44.36,228.98 -37.78,103.79 -118.89,169.56 -181.17,146.9 -62.28,-22.67 -82.14,-125.19 -44.36,-228.99"
         style="fill:#d9a05d;fill-opacity:1;fill-rule:nonzero;stroke:none"
         id="path72" /><path
         d="m 4401.43,1964.72 -167.54,-44.89 -32.21,-55.78 c -44,-76.21 -142.35,-102.57 -218.56,-58.56 -76.21,43.99 -102.57,142.35 -58.57,218.56 l 26.87,46.53 -48.81,182.13 c -22.77,85 28.14,173.18 113.14,195.96 v 0 c 85,22.78 173.18,-28.14 195.96,-113.14 l 19.76,-73.76 c 3.92,-1.85 7.83,-3.75 11.65,-5.95 0.84,-0.49 1.6,-1.08 2.43,-1.58 l 73.06,19.58 c 85,22.77 173.18,-28.14 195.96,-113.14 h -0.01 c 22.78,-85 -28.13,-173.18 -113.13,-195.96"
         style="fill:#d9a05d;fill-opacity:1;fill-rule:nonzero;stroke:none"
         id="path74" /><path
         d="m 3587.98,1905.68 c 77.32,0 140,35.82 140,80 0,44.18 -62.68,80 -140,80 -77.31,0 -140,-35.82 -140,-80 0,-44.18 62.69,-80 140,-80"
         style="fill:#d9a05d;fill-opacity:1;fill-rule:nonzero;stroke:none"
         id="path76" /><path
         d="m 4267.46,1513.39 c -38.66,66.96 -38.98,139.15 -0.72,161.24 38.26,22.09 100.62,-14.28 139.28,-81.24 38.66,-66.96 38.98,-139.15 0.72,-161.25 -38.26,-22.09 -100.62,14.29 -139.28,81.25"
         style="fill:#d9a05d;fill-opacity:1;fill-rule:nonzero;stroke:none"
         id="path78" /><path
         d="m 3765.42,1558.48 c 71,84.62 87.4,187.74 36.63,230.34 -50.77,42.6 -149.48,8.54 -220.48,-76.07 -71,-84.62 -87.4,-187.74 -36.63,-230.35 50.77,-42.6 149.48,-8.54 220.48,76.08"
         style="fill:#d9a05d;fill-opacity:1;fill-rule:nonzero;stroke:none"
         id="path80" /><path
         d="m 3878.05,1493.45 c 37.78,103.8 118.89,169.57 181.17,146.9 62.28,-22.67 82.14,-125.19 44.36,-228.99 -37.78,-103.79 -118.89,-169.56 -181.17,-146.89 -62.27,22.67 -82.13,125.19 -44.36,228.98"
         style="fill:#d9a05d;fill-opacity:1;fill-rule:nonzero;stroke:none"
         id="path82" /><path
         d="m 6738.06,3320.12 -86.72,-150.21 16.67,-62.21 c 22.77,-85 -28.14,-173.19 -113.14,-195.96 -85,-22.78 -173.19,28.13 -195.96,113.14 l -13.91,51.89 -163.29,94.28 c -76.21,44 -102.57,142.35 -58.57,218.56 v 0 c 44,76.21 142.36,102.57 218.57,58.57 l 66.13,-38.18 c 4.08,1.46 8.18,2.88 12.44,4.02 0.95,0.25 1.89,0.37 2.84,0.61 l 37.81,65.49 c 44,76.21 142.36,102.57 218.57,58.57 v 0 c 76.21,-44 102.56,-142.36 58.56,-218.57"
         style="fill:#8b643b;fill-opacity:1;fill-rule:nonzero;stroke:none"
         id="path84" /><path
         d="m 6204.62,2703.19 c 54.67,54.67 73.66,124.32 42.42,155.56 -31.24,31.24 -100.89,12.25 -155.56,-42.43 -54.67,-54.67 -73.67,-124.32 -42.43,-155.56 31.25,-31.24 100.89,-12.25 155.57,42.43"
         style="fill:#8b643b;fill-opacity:1;fill-rule:nonzero;stroke:none"
         id="path86" /><path
         d="m 6962.47,2906.25 c -74.68,20.01 -125.96,70.83 -114.52,113.51 11.43,42.68 81.25,61.05 155.93,41.04 74.69,-20.01 125.96,-70.83 114.53,-113.51 -11.44,-42.68 -81.25,-61.05 -155.94,-41.04"
         style="fill:#8b643b;fill-opacity:1;fill-rule:nonzero;stroke:none"
         id="path88" /><path
         d="m 6575.59,2583.14 c -9.63,110.04 -70.95,194.56 -136.97,188.78 -66.03,-5.77 -111.74,-99.66 -102.12,-209.69 9.63,-110.04 70.96,-194.56 136.98,-188.78 66.02,5.77 111.74,99.66 102.11,209.69"
         style="fill:#8b643b;fill-opacity:1;fill-rule:nonzero;stroke:none"
         id="path90" /><path
         d="m 6701.22,2616.81 c -46.68,100.1 -35.83,203.96 24.23,231.97 60.07,28.01 146.6,-30.44 193.28,-130.55 46.68,-100.11 35.83,-203.96 -24.23,-231.97 -60.07,-28.01 -146.6,30.44 -193.28,130.55"
         style="fill:#8b643b;fill-opacity:1;fill-rule:nonzero;stroke:none"
         id="path92" /><path
         d="m 6530,4760 h 630 c 0,99.41 80.59,180 180,180 99.41,0 180,-80.59 180,-180 0,-62.64 -32.03,-117.76 -80.58,-150 48.55,-32.24 80.58,-87.36 80.58,-150 0,-99.41 -80.59,-180 -180,-180 -99.41,0 -180,80.59 -180,180 h -630 c 0,-99.41 -80.59,-180 -180,-180 -99.41,0 -180,80.59 -180,180 0,62.64 32.03,117.76 80.58,150 -48.55,32.24 -80.58,87.36 -80.58,150 0,99.41 80.59,180 180,180 99.41,0 180,-80.59 180,-180"
         style="fill:#d9a05d;fill-opacity:1;fill-rule:nonzero;stroke:none"
         id="path94" /><path
         d="m 7474.08,1234.97 -545.59,315 c 49.7,86.09 20.21,196.18 -65.89,245.88 -86.09,49.71 -196.17,20.21 -245.88,-65.88 -31.32,-54.25 -31.14,-118 -5.22,-170.19 -58.16,-3.65 -113.46,-35.37 -144.78,-89.62 -49.71,-86.09 -20.21,-196.18 65.88,-245.88 86.1,-49.71 196.18,-20.21 245.89,65.88 l 545.6,-315 c -49.71,-86.09 -20.21,-196.18 65.88,-245.879 86.09,-49.711 196.18,-20.211 245.88,65.879 31.33,54.25 31.14,118 5.22,170.199 58.16,3.641 113.46,35.361 144.78,89.611 49.71,86.09 20.21,196.18 -65.88,245.88 -86.09,49.71 -196.18,20.21 -245.89,-65.88"
         style="fill:#d9a05d;fill-opacity:1;fill-rule:nonzero;stroke:none"
         id="path96" /><path
         d="m 1761.51,4435.16 -545.6,315 c -49.7,-86.09 -159.79,-115.59 -245.879,-65.88 -86.093,49.7 -115.59,159.79 -65.886,245.88 31.324,54.25 86.625,85.97 144.785,89.62 -25.92,52.19 -26.11,115.94 5.22,170.19 49.7,86.09 159.79,115.59 245.88,65.88 86.09,-49.7 115.59,-159.79 65.88,-245.88 l 545.6,-315 c 49.71,86.09 159.79,115.59 245.89,65.88 86.09,-49.7 115.58,-159.79 65.88,-245.88 -31.32,-54.25 -86.62,-85.97 -144.79,-89.61 25.93,-52.2 26.11,-115.95 -5.21,-170.2 -49.71,-86.09 -159.79,-115.59 -245.88,-65.88 -86.1,49.7 -115.6,159.79 -65.89,245.88"
         style="fill:#58595b;fill-opacity:1;fill-rule:nonzero;stroke:none"
         id="path98" /><path
         d="m 3139.41,6472.72 445.48,-445.48 c 70.29,70.3 184.26,70.3 254.56,0 70.29,-70.29 70.29,-184.26 0,-254.56 -44.3,-44.29 -105.92,-60.61 -163.05,-49.08 11.53,-57.13 -4.79,-118.75 -49.09,-163.05 -70.29,-70.29 -184.26,-70.29 -254.55,0 -70.3,70.3 -70.3,184.27 0,254.56 l -445.48,445.48 c -70.3,-70.3 -184.26,-70.3 -254.56,0 -70.29,70.29 -70.29,184.26 0,254.56 44.3,44.29 105.92,60.62 163.05,49.08 -11.53,57.13 4.79,118.75 49.08,163.05 70.3,70.29 184.27,70.29 254.56,0 70.3,-70.3 70.3,-184.26 0,-254.56"
         style="fill:#d9a05d;fill-opacity:1;fill-rule:nonzero;stroke:none"
         id="path100" /><path
         d="M 3462.65,4232.94 3340,4355.59 V 4420 c 0,88 -72,160 -160,160 -88,0 -160,-72 -160,-160 v -53.73 l -133.33,-133.33 c -62.23,-62.22 -62.23,-164.04 0,-226.27 v 0 c 62.22,-62.23 164.05,-62.23 226.27,0 l 54,54 c 4.32,-0.36 8.65,-0.67 13.06,-0.67 0.98,0 1.92,0.13 2.9,0.15 l 53.47,-53.48 c 62.23,-62.23 164.05,-62.23 226.28,0 v 0 c 62.22,62.23 62.22,164.05 0,226.27"
         style="fill:#8b643b;fill-opacity:1;fill-rule:nonzero;stroke:none"
         id="path102" /><path
         d="m 2787.71,4690.79 c 66.96,-38.66 103.33,-101.01 81.24,-139.28 -22.09,-38.26 -94.28,-37.94 -161.24,0.72 -66.97,38.66 -103.34,101.02 -81.25,139.28 22.09,38.27 94.28,37.94 161.25,-0.72"
         style="fill:#8b643b;fill-opacity:1;fill-rule:nonzero;stroke:none"
         id="path104" /><path
         d="m 3572.29,4690.79 c -66.96,-38.66 -103.33,-101.01 -81.24,-139.28 22.09,-38.26 94.28,-37.94 161.24,0.72 66.97,38.66 103.34,101.02 81.25,139.28 -22.09,38.27 -94.28,37.94 -161.25,-0.72"
         style="fill:#8b643b;fill-opacity:1;fill-rule:nonzero;stroke:none"
         id="path106" /><path
         d="m 3114.97,4902.76 c 19.18,-108.78 -18.18,-206.29 -83.45,-217.8 -65.26,-11.51 -133.72,67.35 -152.9,176.13 -19.18,108.77 18.18,206.29 83.44,217.79 65.27,11.51 133.73,-67.34 152.91,-176.12"
         style="fill:#8b643b;fill-opacity:1;fill-rule:nonzero;stroke:none"
         id="path108" /><path
         d="m 3245.03,4902.76 c -19.18,-108.78 18.18,-206.29 83.45,-217.8 65.26,-11.51 133.72,67.35 152.9,176.13 19.18,108.77 -18.18,206.29 -83.44,217.79 -65.27,11.51 -133.73,-67.34 -152.91,-176.12"
         style="fill:#8b643b;fill-opacity:1;fill-rule:nonzero;stroke:none"
         id="path110" /><path
         d="m 3375.91,3239.84 545.6,315 c -49.7,86.09 -20.21,196.18 65.89,245.88 86.09,49.71 196.17,20.21 245.88,-65.88 31.32,-54.25 31.14,-118 5.22,-170.2 58.16,-3.64 113.46,-35.36 144.78,-89.61 49.71,-86.09 20.21,-196.18 -65.88,-245.88 -86.1,-49.71 -196.18,-20.21 -245.89,65.88 l -545.6,-315 c 49.71,-86.09 20.21,-196.18 -65.88,-245.88 -86.09,-49.71 -196.18,-20.21 -245.88,65.88 -31.33,54.25 -31.14,118 -5.22,170.19 -58.16,3.65 -113.46,35.37 -144.78,89.62 -49.71,86.09 -20.21,196.18 65.88,245.88 86.09,49.71 196.18,20.21 245.88,-65.88"
         style="fill:#c17529;fill-opacity:1;fill-rule:nonzero;stroke:none"
         id="path112" /><path
         d="m 572.105,5680.59 v 0 c -44.003,76.21 -142.355,102.56 -218.566,58.56 l -150.211,-86.72 -62.215,16.67 C 90.2891,5682.72 38.4375,5669.84 0,5639.24 v -249.63 c 16.7227,-13.42 36.3398,-23.73 58.2891,-29.61 l 51.8989,-13.91 94.277,-163.29 c 44,-76.21 142.355,-102.56 218.566,-58.57 v 0 c 76.207,44 102.563,142.36 58.563,218.57 l -38.18,66.13 c 1.457,4.08 2.883,8.19 4.024,12.44 0.25,0.95 0.371,1.9 0.605,2.84 l 65.496,37.82 c 76.211,43.99 102.566,142.35 58.566,218.56"
         style="fill:#e7c9a5;fill-opacity:1;fill-rule:nonzero;stroke:none"
         id="path114" /><path
         d="m 53.1797,5849.04 c 42.6758,11.43 61.0503,81.25 41.0391,155.93 C 77.1563,6068.65 37.7109,6115.15 0,6120.44 v -256.97 c 17.3477,-13.29 35.918,-19.06 53.1797,-14.43"
         style="fill:#e7c9a5;fill-opacity:1;fill-rule:nonzero;stroke:none"
         id="path116" /><path
         d="m 7945.15,5555.96 c -16.89,-63.05 6.82,-127.79 54.85,-166.35 v 249.63 c -25.85,-20.58 -45.69,-49.1 -54.85,-83.28"
         style="fill:#e7c9a5;fill-opacity:1;fill-rule:nonzero;stroke:none"
         id="path118" /><path
         d="m 7736.6,5205.71 c -54.67,-54.67 -73.67,-124.32 -42.42,-155.56 31.24,-31.25 100.89,-12.25 155.56,42.42 54.67,54.67 73.67,124.32 42.43,155.57 -31.24,31.24 -100.89,12.24 -155.57,-42.43"
         style="fill:#e7c9a5;fill-opacity:1;fill-rule:nonzero;stroke:none"
         id="path120" /><path
         d="m 7980.71,6119.5 c -42.68,-11.44 -61.05,-81.25 -41.04,-155.94 11.92,-44.48 34.79,-80.52 60.33,-100.09 v 256.97 c -6.52,0.91 -13,0.74 -19.29,-0.94"
         style="fill:#e7c9a5;fill-opacity:1;fill-rule:nonzero;stroke:none"
         id="path122" /><path
         d="m 7805.34,5439.71 c 5.78,66.02 -78.74,127.35 -188.78,136.97 -110.04,9.63 -203.92,-36.09 -209.7,-102.11 -5.77,-66.02 78.75,-127.35 188.78,-136.97 110.04,-9.63 203.93,36.09 209.7,102.11"
         style="fill:#e7c9a5;fill-opacity:1;fill-rule:nonzero;stroke:none"
         id="path124" /><path
         d="m 7650.22,5702.31 c 100.11,-46.68 203.97,-35.83 231.98,24.23 28.01,60.07 -30.44,146.6 -130.55,193.28 -100.11,46.69 -203.97,35.84 -231.97,-24.23 -28.01,-60.06 30.43,-146.6 130.54,-193.28"
         style="fill:#e7c9a5;fill-opacity:1;fill-rule:nonzero;stroke:none"
         id="path126" /><path
         d="m 7840,3600.38 v -53.72 l -133.33,-133.33 c -62.23,-62.23 -62.23,-164.05 0,-226.28 v 0 c 62.22,-62.22 164.05,-62.22 226.27,0 l 54,54 c 4.32,-0.36 8.65,-0.67 13.06,-0.67 v 520 c -88,0 -160,-72 -160,-160"
         style="fill:#c17529;fill-opacity:1;fill-rule:nonzero;stroke:none"
         id="path128" /><path
         d="m 7688.95,3731.89 c 22.09,38.27 -14.28,100.63 -81.24,139.29 -66.97,38.66 -139.16,38.98 -161.25,0.71 -22.09,-38.26 14.28,-100.62 81.25,-139.28 66.96,-38.66 139.15,-38.98 161.24,-0.72"
         style="fill:#c17529;fill-opacity:1;fill-rule:nonzero;stroke:none"
         id="path130" /><path
         d="m 7851.52,3865.34 c 65.27,11.51 102.63,109.03 83.45,217.81 -19.18,108.77 -87.64,187.63 -152.91,176.12 -65.26,-11.51 -102.62,-109.02 -83.44,-217.8 19.18,-108.78 87.63,-187.63 152.9,-176.13"
         style="fill:#c17529;fill-opacity:1;fill-rule:nonzero;stroke:none"
         id="path132" /><path
         d="m 160,3535.97 v 64.41 c 0,88 -72,160 -160,160 v -520 c 0.976563,0 1.92188,0.13 2.89453,0.15 L 56.375,3187.05 c 62.227,-62.22 164.051,-62.22 226.273,0 v 0 c 62.227,62.23 62.227,164.05 0,226.28 L 160,3535.97"
         style="fill:#c17529;fill-opacity:1;fill-rule:nonzero;stroke:none"
         id="path134" /><path
         d="m 553.539,3871.89 c -22.094,38.27 -94.285,37.95 -161.246,-0.71 -66.961,-38.66 -103.332,-101.02 -81.242,-139.29 22.09,-38.26 94.281,-37.94 161.242,0.72 66.961,38.66 103.336,101.02 81.246,139.28"
         style="fill:#c17529;fill-opacity:1;fill-rule:nonzero;stroke:none"
         id="path136" /><path
         d="m 148.477,3865.34 c 65.269,-11.5 133.726,67.35 152.906,176.13 19.18,108.78 -18.18,206.29 -83.445,217.8 -65.27,11.51 -133.7271,-67.35 -152.9067,-176.12 -19.1836,-108.78 18.1796,-206.3 83.4457,-217.81"
         style="fill:#c17529;fill-opacity:1;fill-rule:nonzero;stroke:none"
         id="path138" /><path
         d="m 7860,2360 c 0,99.41 -80.59,180 -180,180 -99.41,0 -180,-80.59 -180,-180 0,-62.64 32.03,-117.76 80.58,-150 -48.55,-32.24 -80.58,-87.36 -80.58,-150 0,-99.41 80.59,-180 180,-180 99.41,0 180,80.59 180,180 h 140 v 300 h -140"
         style="fill:#58595b;fill-opacity:1;fill-rule:nonzero;stroke:none"
         id="path140" /><path
         d="m 769.418,2210 c 48.547,32.24 80.582,87.36 80.582,150 0,99.41 -80.59,180 -180,180 -99.41,0 -180,-80.59 -180,-180 H 0 v -300 h 490 c 0,-99.41 80.59,-180 180,-180 99.41,0 180,80.59 180,180 0,62.64 -32.035,117.76 -80.582,150"
         style="fill:#58595b;fill-opacity:1;fill-rule:nonzero;stroke:none"
         id="path142" /><path
         d="M 563.543,7223.69 C 467.52,7249.42 368.82,7192.43 343.09,7096.41 L 0,7188.34 v -310.58 l 265.445,-71.13 c -25.73,-96.02 31.254,-194.72 127.278,-220.45 96.023,-25.73 194.722,31.25 220.453,127.28 16.215,60.51 -0.465,122.04 -39.012,165.74 55.238,18.58 100.445,63.52 116.66,124.03 25.731,96.03 -31.258,194.73 -127.281,220.46"
         style="fill:#c17529;fill-opacity:1;fill-rule:nonzero;stroke:none"
         id="path144" /><path
         d="m 7734.56,7259.47 c 25.73,96.02 -31.26,194.72 -127.28,220.45 -96.03,25.73 -194.73,-31.25 -220.46,-127.28 -16.21,-60.51 0.47,-122.04 39.01,-165.74 -55.23,-18.58 -100.44,-63.52 -116.65,-124.04 -25.73,-96.02 31.25,-194.72 127.28,-220.45 96.02,-25.73 194.72,31.25 220.45,127.28 L 8000,6877.76 v 310.58 l -265.44,71.13"
         style="fill:#c17529;fill-opacity:1;fill-rule:nonzero;stroke:none"
         id="path146" /><path
         d="m 392.383,7970.19 c 16.211,-60.51 61.418,-105.46 116.656,-124.03 -38.547,-43.71 -55.226,-105.24 -39.012,-165.75 25.731,-96.02 124.43,-153.01 220.453,-127.28 96.024,25.73 153.008,124.43 127.282,220.46 l 608.528,163.05 c 25.73,-96.02 124.43,-153.01 220.46,-127.28 86.08,23.07 140.58,104.79 132.45,190.64 H 387.211 c 0.937,-9.91 2.508,-19.87 5.172,-29.81"
         style="fill:#d9a05d;fill-opacity:1;fill-rule:nonzero;stroke:none"
         id="path148" /><path
         d="m 6895.13,7948.43 c 73.78,-42.59 168.16,-19.11 214.04,51.57 h -268.03 c 13.3,-20.61 31.39,-38.52 53.99,-51.57"
         style="fill:#e7c9a5;fill-opacity:1;fill-rule:nonzero;stroke:none"
         id="path150" /><path
         d="m 7178.75,7817.58 c -38.26,-22.09 -37.93,-94.28 0.73,-161.24 38.65,-66.96 101.01,-103.34 139.27,-81.25 38.27,22.09 37.95,94.29 -0.71,161.25 -38.66,66.96 -101.02,103.33 -139.29,81.24"
         style="fill:#e7c9a5;fill-opacity:1;fill-rule:nonzero;stroke:none"
         id="path152" /><path
         d="m 6714.07,7931.77 c -50.77,42.6 -149.49,8.54 -220.48,-76.07 -71,-84.62 -87.41,-187.75 -36.64,-230.34 50.77,-42.61 149.49,-8.55 220.49,76.07 71,84.61 87.4,187.74 36.63,230.34"
         style="fill:#e7c9a5;fill-opacity:1;fill-rule:nonzero;stroke:none"
         id="path154" /><path
         d="m 6971.24,7783.29 c -62.28,22.67 -143.39,-43.09 -181.17,-146.89 -37.78,-103.8 -17.92,-206.31 44.36,-228.98 62.28,-22.67 143.39,43.1 181.17,146.89 37.78,103.8 17.92,206.32 -44.36,228.98"
         style="fill:#e7c9a5;fill-opacity:1;fill-rule:nonzero;stroke:none"
         id="path156" /><path
         d="m 7145.9,62.7813 167.54,44.8907 c 85,22.769 135.92,110.957 113.14,195.957 v 0 c -22.78,85 -110.96,135.91 -195.96,113.141 l -73.05,-19.579 c -0.84,0.5 -1.59,1.09 -2.44,1.571 -3.81,2.207 -7.72,4.109 -11.64,5.957 l -19.76,73.761 c -22.78,85 -110.96,135.911 -195.96,113.141 v 0 C 6842.77,568.84 6791.86,480.66 6814.63,395.66 L 6863.43,213.52 6836.57,167 C 6805.62,113.391 6809.6,48.9023 6841.14,0 h 268.03 c 1.51,2.32813 3.12,4.57031 4.53,7 l 32.2,55.7813"
         style="fill:#e7c9a5;fill-opacity:1;fill-rule:nonzero;stroke:none"
         id="path158" /><path
         d="m 6500,48.6289 c 77.32,0 140,35.8203 140,80.0001 0,44.18 -62.68,80 -140,80 -77.32,0 -140,-35.82 -140,-80 0,-44.1798 62.68,-80.0001 140,-80.0001"
         style="fill:#e7c9a5;fill-opacity:1;fill-rule:nonzero;stroke:none"
         id="path160" /><path
         d="m 4297.02,7685 v 315 h -300 v -315 c -99.41,0 -180,-80.59 -180,-180 0,-99.41 80.59,-180 180,-180 62.65,0 117.77,32.04 150,80.58 32.24,-48.54 87.36,-80.58 150,-80.58 99.42,0 180,80.59 180,180 0,99.41 -80.58,180 -180,180"
         style="fill:#e7c9a5;fill-opacity:1;fill-rule:nonzero;stroke:none"
         id="path162" /><path
         d="m 4297.02,315 c 99.42,0 180,80.59 180,180 0,99.41 -80.58,180 -180,180 -62.64,0 -117.76,-32.031 -150,-80.578 -32.23,48.547 -87.35,80.578 -150,80.578 -99.41,0 -180,-80.59 -180,-180 0,-99.41 80.59,-180 180,-180 V 0 h 300 v 315"
         style="fill:#e7c9a5;fill-opacity:1;fill-rule:nonzero;stroke:none"
         id="path164" /><path
         d="m 1657.37,153.852 c 38.55,43.699 55.23,105.23 39.01,165.738 -25.73,96.031 -124.43,153.012 -220.45,127.281 -96.03,-25.73 -153.01,-124.43 -127.28,-220.449 L 740.113,63.3594 C 714.387,159.379 615.688,216.371 519.66,190.641 433.578,167.582 379.078,85.8516 387.211,0 H 1779.2 c -0.94,9.91016 -2.51,19.8711 -5.17,29.8086 -16.22,60.5117 -61.43,105.4614 -116.66,124.0434"
         style="fill:#d9a05d;fill-opacity:1;fill-rule:nonzero;stroke:none"
         id="path166" /><path
         d="m 2877.18,7957.76 c 62.22,-62.23 164.05,-62.23 226.27,0 l 37.99,37.99 H 3330 c 12.37,0 24.37,1.56 35.95,4.25 h -518.87 c 7.51,-15.26 17.45,-29.59 30.1,-42.24"
         style="fill:#c17529;fill-opacity:1;fill-rule:nonzero;stroke:none"
         id="path168" /><path
         d="m 3117.27,7757.96 c -42.68,-11.44 -61.05,-81.25 -41.04,-155.94 20.01,-74.68 70.83,-125.96 113.51,-114.52 42.67,11.43 61.05,81.25 41.04,155.93 -20.02,74.69 -70.83,125.96 -113.51,114.53"
         style="fill:#c17529;fill-opacity:1;fill-rule:nonzero;stroke:none"
         id="path170" /><path
         d="m 2907.95,7778.55 c -54.29,38.01 -149.66,-4.52 -213.02,-95 -63.35,-90.48 -70.7,-194.65 -16.41,-232.66 54.29,-38.01 149.66,4.52 213.01,95 63.36,90.48 70.71,194.65 16.42,232.66"
         style="fill:#c17529;fill-opacity:1;fill-rule:nonzero;stroke:none"
         id="path172" /><path
         d="m 2465.31,7972.11 c -90.48,-63.35 -133.02,-158.72 -95,-213.01 38.01,-54.29 142.18,-46.94 232.66,16.42 90.48,63.35 133.01,158.72 95,213.01 -2.97,4.24 -6.48,7.98 -10.22,11.47 h -174.29 c -16.18,-7.61 -32.38,-16.84 -48.15,-27.89"
         style="fill:#c17529;fill-opacity:1;fill-rule:nonzero;stroke:none"
         id="path174" /><path
         d="m 3490,155.75 v 0 c 0,88 -72,160 -160,160 h -76.36 c -2.81,3.309 -5.65,6.59 -8.77,9.699 -0.69,0.699 -1.45,1.27 -2.15,1.949 v 75.633 c 0,88 -72,160 -160,160 v 0 c -88,0 -160,-72 -160,-160 V 229.582 l -45.54,-45.551 C 2827.6,134.461 2817.66,59.7891 2847.08,0 h 518.87 C 3436.77,16.4492 3490,80.1211 3490,155.75"
         style="fill:#c17529;fill-opacity:1;fill-rule:nonzero;stroke:none"
         id="path176" /><path
         d="m 2521.44,156.813 c 74.69,-20.012 144.5,-1.641 155.94,41.039 11.43,42.668 -39.84,93.5 -114.53,113.507 -74.68,20.012 -144.5,1.641 -155.93,-41.039 -11.44,-42.679 39.84,-93.5 114.52,-113.507"
         style="fill:#c17529;fill-opacity:1;fill-rule:nonzero;stroke:none"
         id="path178" /><path
         d="m 2513.46,0 h 174.29 c -35.78,33.4023 -104.91,32.6289 -174.29,0"
         style="fill:#c17529;fill-opacity:1;fill-rule:nonzero;stroke:none"
         id="path180" /><path
         d="m 5322.8,42.2422 c 62.22,62.2268 164.04,62.2268 226.27,0 L 5587.06,4.25 h 188.56 c 12.37,0 24.37,-1.55859 35.95,-4.25 H 5292.7 c 7.51,15.2617 17.45,29.5898 30.1,42.2422"
         style="fill:#58595b;fill-opacity:1;fill-rule:nonzero;stroke:none"
         id="path182" /><path
         d="m 5562.89,242.039 c -42.68,11.441 -61.06,81.25 -41.04,155.941 20.01,74.68 70.83,125.961 113.5,114.52 42.68,-11.43 61.06,-81.25 41.04,-155.93 -20.01,-74.691 -70.83,-125.961 -113.5,-114.531"
         style="fill:#58595b;fill-opacity:1;fill-rule:nonzero;stroke:none"
         id="path184" /><path
         d="m 5353.56,221.449 c -54.28,-38.008 -149.65,4.52 -213.01,95 -63.35,90.481 -70.7,194.653 -16.41,232.66 54.28,38.012 149.65,-4.519 213.01,-95 63.35,-90.48 70.7,-194.648 16.41,-232.66"
         style="fill:#58595b;fill-opacity:1;fill-rule:nonzero;stroke:none"
         id="path186" /><path
         d="m 4910.93,27.8906 c -90.48,63.3594 -133.02,158.7184 -95,213.0114 38.01,54.289 142.18,46.938 232.66,-16.422 90.48,-63.351 133.01,-158.7183 95,-213.0112 C 5140.62,7.23047 5137.11,3.49219 5133.37,0 h -174.29 c -16.19,7.60938 -32.38,16.8398 -48.15,27.8906"
         style="fill:#58595b;fill-opacity:1;fill-rule:nonzero;stroke:none"
         id="path188" /><path
         d="m 5935.62,7844.25 v 0 c 0,-88 -72,-160 -160,-160 h -76.36 c -2.81,-3.3 -5.65,-6.59 -8.77,-9.7 -0.69,-0.69 -1.45,-1.27 -2.15,-1.95 v -75.63 c 0,-88 -72,-160 -160,-160 v 0 c -88,0 -160,72 -160,160 v 173.46 l -45.54,45.54 c -49.58,49.57 -59.52,124.24 -30.1,184.03 h 518.87 c 70.81,-16.45 124.05,-80.12 124.05,-155.75"
         style="fill:#58595b;fill-opacity:1;fill-rule:nonzero;stroke:none"
         id="path190" /><path
         d="m 4967.06,7843.19 c 74.68,20.01 144.5,1.64 155.93,-41.04 11.44,-42.68 -39.84,-93.49 -114.52,-113.51 -74.69,-20.01 -144.5,-1.64 -155.94,41.04 -11.43,42.68 39.84,93.5 114.53,113.51"
         style="fill:#58595b;fill-opacity:1;fill-rule:nonzero;stroke:none"
         id="path192" /><path
         d="m 4959.08,8000 h 174.29 c -35.79,-33.4 -104.91,-32.63 -174.29,0"
         style="fill:#58595b;fill-opacity:1;fill-rule:nonzero;stroke:none"
         id="path194" /></g></g></svg>
